<?xml version="1.0" encoding="utf-8"?>
<!-- created with cmmn-js / http://bpmn.io -->
<!DOCTYPE svg PUBLIC "-//W3C//DTD SVG 1.1//EN" "http://www.w3.org/Graphics/SVG/1.1/DTD/svg11.dtd">
<svg xmlns="http://www.w3.org/2000/svg" xmlns:xlink="http://www.w3.org/1999/xlink" width="791" height="588" viewBox="150 75 791 588" version="1.1"><defs><marker id="association-start" viewBox="0 0 20 20" refX="1" refY="10" markerWidth="10" markerHeight="10" orient="auto"><path d="M 11 5 L 1 10 L 11 15" style="fill: none; stroke-width: 1.5px; stroke-linecap: round; stroke-dasharray: 10000px, 1px; stroke: black;"></path></marker><marker id="association-end" viewBox="0 0 20 20" refX="12" refY="10" markerWidth="10" markerHeight="10" orient="auto"><path d="M 1 5 L 11 10 L 1 15" style="fill: none; stroke-width: 1.5px; stroke-linecap: round; stroke-dasharray: 10000px, 1px; stroke: black;"></path></marker></defs><g class="djs-group"><g class="djs-element djs-shape" data-element-id="_c4018f7f-fe28-4c90-8496-82f49b98ff87" transform="translate(156 99)" style="display: block;"><g class="djs-visual"><rect x="0" y="0" width="769" height="558" rx="0" ry="0" style="stroke: black; stroke-width: 2px; fill: white; fill-opacity: 0.95;"/><polygon points="10,0 20,-18 164.078125,-18 174.078125,0" style="fill: white; stroke: black; stroke-width: 2px; fill-opacity: 0.95; pointer-events: all;"/><text class="djs-label" transform="translate(25 -13)" style="font-family: Arial, sans-serif; font-size: 12px;"><tspan x="0" y="10.06640625">wait for the passengers</tspan></text><rect x="0" y="0" width="30" height="24" rx="0" ry="0" transform="translate(369.5 -17)" style="stroke: black; stroke-width: 1.5px; fill: white;"/><path d="m369.5,-17 m 0,12 l 30,0 m -20,-12 l 0, 24 m 10, -24 l 0, 24 m -10, -6 l 10,0" style="fill: none; stroke-width: 1.5px; stroke: black;"/><rect x="0" y="0" width="11" height="14" rx="0" ry="0" transform="translate(379.5 541)" style="stroke: black; stroke-width: 1px; fill: black;"/></g><rect class="djs-hit djs-hit-all" x="0" y="0" width="769" height="558" style="fill: none; stroke-opacity: 0; stroke: white; stroke-width: 15px;"/><rect x="-6" y="-24" width="781" height="588" class="djs-outline" style="fill: none;"/></g><g class="djs-children"><g class="djs-group"><g class="djs-element djs-shape" data-element-id="PlanItem_1nax7d7" transform="translate(245 213)" style="display: block;"><g class="djs-visual"><rect x="0" y="0" width="100" height="80" rx="10" ry="10" style="stroke: black; stroke-width: 2px; fill: white;"/><text class="djs-label" style="font-family: Arial, sans-serif; font-size: 12px;"><tspan x="28.9921875" y="29.93359375">Confirm </tspan><tspan x="21.9765625" y="43.35546875">passenger </tspan><tspan x="29.3125" y="56.77734375">position</tspan></text></g><rect class="djs-hit djs-hit-all" x="0" y="0" width="100" height="80" style="fill: none; stroke-opacity: 0; stroke: white; stroke-width: 15px;"/><rect x="-6" y="-6" width="112" height="92" class="djs-outline" style="fill: none;"/></g></g><g class="djs-group"><g class="djs-element djs-shape" data-element-id="PlanItem_0cai6hr" transform="translate(457 130)" style="display: block;"><g class="djs-visual"><polygon points="20,200 0,180 0,20 20,0 330,0 350,20 350,180 330,200" style="fill-opacity: 0.95; fill: white; stroke: black; stroke-width: 2px;"/><text class="djs-label" transform="translate(20 0)" style="font-family: Arial, sans-serif; font-size: 12px;"><tspan x="5" y="15.06640625"/></text><rect x="0" y="0" width="14" height="14" rx="0" ry="0" transform="translate(168 183)" style="stroke: black; stroke-width: 1px; fill: white;"/><path d="m168,183 m 2,7 l 10,0" style="fill: none; stroke-width: 2px; stroke: black;"/></g><rect class="djs-hit djs-hit-all" x="0" y="0" width="350" height="200" style="fill: none; stroke-opacity: 0; stroke: white; stroke-width: 15px;"/><rect x="-6" y="-6" width="362" height="212" class="djs-outline" style="fill: none;"/></g><g class="djs-children"><g class="djs-group"><g class="djs-element djs-shape" data-element-id="PlanItem_0bfz4uq" transform="translate(681 188)" style="display: block;"><g class="djs-visual"><rect x="0" y="0" width="100" height="80" rx="10" ry="10" style="stroke: black; stroke-width: 2px; fill: white;"/><text class="djs-label" style="font-family: Arial, sans-serif; font-size: 12px;"><tspan x="20.3125" y="29.93359375">drive to the </tspan><tspan x="23.9765625" y="43.35546875">positon of </tspan><tspan x="28.6484375" y="56.77734375">meeting</tspan></text></g><rect class="djs-hit djs-hit-all" x="0" y="0" width="100" height="80" style="fill: none; stroke-opacity: 0; stroke: white; stroke-width: 15px;"/><rect x="-6" y="-6" width="112" height="92" class="djs-outline" style="fill: none;"/></g></g><g class="djs-group"><g class="djs-element djs-shape" data-element-id="PlanItem_09j48so" transform="translate(482 188)" style="display: block;"><g class="djs-visual"><rect x="0" y="0" width="100" height="80" rx="10" ry="10" style="stroke: black; stroke-width: 2px; fill: white;"/><text class="djs-label" style="font-family: Arial, sans-serif; font-size: 12px;"><tspan x="6.9765625" y="29.93359375">Call passengers </tspan><tspan x="11.6484375" y="43.35546875">for information </tspan><tspan x="22.6484375" y="56.77734375">of position</tspan></text></g><rect class="djs-hit djs-hit-all" x="0" y="0" width="100" height="80" style="fill: none; stroke-opacity: 0; stroke: white; stroke-width: 15px;"/><rect x="-6" y="-6" width="112" height="92" class="djs-outline" style="fill: none;"/></g></g><g class="djs-group"><g class="djs-element djs-shape" data-element-id="EntryCriterion_0ou2d8u" transform="translate(671 213)" style="display: block;"><g class="djs-visual"><polygon points="10,0 20,14 10,28 0,14" style="stroke: black; stroke-width: 2px; fill: white;"/></g><rect class="djs-hit djs-hit-all" x="0" y="0" width="20" height="28" style="fill: none; stroke-opacity: 0; stroke: white; stroke-width: 15px;"/><rect x="-6" y="-6" width="32" height="40" class="djs-outline" style="fill: none;"/></g></g></g></g><g class="djs-group"><g class="djs-element djs-shape" data-element-id="PlanItem_1wwq6cy" transform="translate(582 444)" style="display: block;"><g class="djs-visual"><rect x="0" y="0" width="100" height="40" rx="24" ry="24" style="stroke: black; stroke-width: 2px; fill: white;"/><text class="djs-label" style="font-family: Arial, sans-serif; font-size: 12px;"><tspan x="18.9765625" y="9.93359375">passengers </tspan><tspan x="21.96875" y="23.35546875">have been </tspan><tspan x="29.6484375" y="36.77734375">greeted</tspan></text></g><rect class="djs-hit djs-hit-all" x="0" y="0" width="100" height="40" style="fill: none; stroke-opacity: 0; stroke: white; stroke-width: 15px;"/><rect x="-6" y="-6" width="112" height="52" class="djs-outline" style="fill: none;"/></g></g><g class="djs-group"><g class="djs-element djs-shape" data-element-id="PlanItem_1z0xqof" transform="translate(731 510)" style="display: block;"><g class="djs-visual"><rect x="0" y="0" width="100" height="80" rx="10" ry="10" style="stroke: black; stroke-width: 2px; fill: white;"/><text class="djs-label" style="font-family: Arial, sans-serif; font-size: 12px;"><tspan x="20.3203125" y="29.93359375">confirm the </tspan><tspan x="8.96875" y="43.35546875">passenger gets </tspan><tspan x="23.3125" y="56.77734375">on the car</tspan></text></g><rect class="djs-hit djs-hit-all" x="0" y="0" width="100" height="80" style="fill: none; stroke-opacity: 0; stroke: white; stroke-width: 15px;"/><rect x="-6" y="-6" width="112" height="92" class="djs-outline" style="fill: none;"/></g></g><g class="djs-group"><g class="djs-element djs-shape" data-element-id="_83b95740-96b1-4ff1-83c8-24262aa683a4" transform="translate(915 357)" style="display: block;"><g class="djs-visual"><polygon points="10,0 20,14 10,28 0,14" style="stroke: black; stroke-width: 2px; fill: black;"/></g><rect class="djs-hit djs-hit-all" x="0" y="0" width="20" height="28" style="fill: none; stroke-opacity: 0; stroke: white; stroke-width: 15px;"/><rect x="-6" y="-6" width="32" height="40" class="djs-outline" style="fill: none;"/></g></g><g class="djs-group"><g class="djs-element djs-shape" data-element-id="EntryCriterion_0w38ifk" transform="translate(235 239)" style="display: block;"><g class="djs-visual"><polygon points="10,0 20,14 10,28 0,14" style="stroke: black; stroke-width: 2px; fill: white;"/></g><rect class="djs-hit djs-hit-all" x="0" y="0" width="20" height="28" style="fill: none; stroke-opacity: 0; stroke: white; stroke-width: 15px;"/><rect x="-6" y="-6" width="32" height="40" class="djs-outline" style="fill: none;"/></g></g><g class="djs-group"><g class="djs-element djs-shape" data-element-id="EntryCriterion_0enhxnr" transform="translate(447 212)" style="display: block;"><g class="djs-visual"><polygon points="10,0 20,14 10,28 0,14" style="stroke: black; stroke-width: 2px; fill: white;"/></g><rect class="djs-hit djs-hit-all" x="0" y="0" width="20" height="28" style="fill: none; stroke-opacity: 0; stroke: white; stroke-width: 15px;"/><rect x="-6" y="-6" width="32" height="40" class="djs-outline" style="fill: none;"/></g></g><g class="djs-group"><g class="djs-element djs-shape" data-element-id="EntryCriterion_153n73k" transform="translate(572 451)" style="display: block;"><g class="djs-visual"><polygon points="10,0 20,14 10,28 0,14" style="stroke: black; stroke-width: 2px; fill: white;"/></g><rect class="djs-hit djs-hit-all" x="0" y="0" width="20" height="28" style="fill: none; stroke-opacity: 0; stroke: white; stroke-width: 15px;"/><rect x="-6" y="-6" width="32" height="40" class="djs-outline" style="fill: none;"/></g></g><g class="djs-group"><g class="djs-element djs-shape" data-element-id="EntryCriterion_010ny90" transform="translate(721 534)" style="display: block;"><g class="djs-visual"><polygon points="10,0 20,14 10,28 0,14" style="stroke: black; stroke-width: 2px; fill: white;"/></g><rect class="djs-hit djs-hit-all" x="0" y="0" width="20" height="28" style="fill: none; stroke-opacity: 0; stroke: white; stroke-width: 15px;"/><rect x="-6" y="-6" width="32" height="40" class="djs-outline" style="fill: none;"/></g></g><g class="djs-group"><g class="djs-element djs-connection" data-element-id="PlanItemOnPart_10wx0fi_di" style="display: block;"><g class="djs-visual"><path d="m  345,253L396,253 L396,226 L447,226 " style="fill: none; stroke-width: 1.5px; stroke: black; stroke-dasharray: 10px, 5px, 2px, 5px, 2px, 5px;"/></g><polyline points="345,253 396,253 396,226 447,226 " class="djs-hit djs-hit-stroke" style="fill: none; stroke-opacity: 0; stroke: white; stroke-width: 15px;"/><rect x="339" y="220" width="114" height="39" class="djs-outline" style="fill: none;"/></g></g><g class="djs-group"><g class="djs-element djs-shape" data-element-id="PlanItemOnPart_10wx0fi_di_label" transform="translate(370 229.5)" style="display: block;"><g class="djs-visual"><text class="djs-label" transform="translate(-19.625,0)" style="font-family: Arial, sans-serif; font-size: 11px;"><tspan x="19.625" y="9.234375">[complete]</tspan></text></g><rect class="djs-hit djs-hit-all" x="0" y="0" width="51" height="13" style="fill: none; stroke-opacity: 0; stroke: white; stroke-width: 15px;"/><rect x="-6" y="-6" width="63" height="25" class="djs-outline" style="fill: none;"/></g></g><g class="djs-group"><g class="djs-element djs-connection" data-element-id="PlanItemOnPart_0fhfs2p_di" style="display: block;"><g class="djs-visual"><path d="m  582,228L627,228 L627,227 L671,227 " style="fill: none; stroke-width: 1.5px; stroke: black; stroke-dasharray: 10px, 5px, 2px, 5px, 2px, 5px;"/></g><polyline points="582,228 627,228 627,227 671,227 " class="djs-hit djs-hit-stroke" style="fill: none; stroke-opacity: 0; stroke: white; stroke-width: 15px;"/><rect x="576" y="221" width="101" height="13" class="djs-outline" style="fill: none;"/></g></g><g class="djs-group"><g class="djs-element djs-connection" data-element-id="PlanItemOnPart_1iwu2xf_di" style="display: block;"><g class="djs-visual"><path d="m  632,484L632,548 L721,548 " style="fill: none; stroke-width: 1.5px; stroke: black; stroke-dasharray: 10px, 5px, 2px, 5px, 2px, 5px;"/></g><polyline points="632,484 632,548 721,548 " class="djs-hit djs-hit-stroke" style="fill: none; stroke-opacity: 0; stroke: white; stroke-width: 15px;"/><rect x="626" y="478" width="101" height="76" class="djs-outline" style="fill: none;"/></g></g><g class="djs-group"><g class="djs-element djs-connection" data-element-id="PlanItemOnPart_18jp427_di" style="display: block;"><g class="djs-visual"><path d="m  831,550L873,550 L873,371 L915,371 " style="fill: none; stroke-width: 1.5px; stroke: black; stroke-dasharray: 10px, 5px, 2px, 5px, 2px, 5px;"/></g><polyline points="831,550 873,550 873,371 915,371 " class="djs-hit djs-hit-stroke" style="fill: none; stroke-opacity: 0; stroke: white; stroke-width: 15px;"/><rect x="825" y="365" width="96" height="191" class="djs-outline" style="fill: none;"/></g></g><g class="djs-group"><g class="djs-element djs-shape" data-element-id="PlanItemOnPart_18jp427_di_label" transform="translate(847 450.5)" style="display: block;"><g class="djs-visual"><text class="djs-label" transform="translate(-19.625,0)" style="font-family: Arial, sans-serif; font-size: 11px;"><tspan x="19.625" y="9.234375">[complete]</tspan></text></g><rect class="djs-hit djs-hit-all" x="0" y="0" width="51" height="13" style="fill: none; stroke-opacity: 0; stroke: white; stroke-width: 15px;"/><rect x="-6" y="-6" width="63" height="25" class="djs-outline" style="fill: none;"/></g></g><g class="djs-group"><g class="djs-element djs-shape" data-element-id="PlanItemOnPart_1iwu2xf_di_label" transform="translate(645 526)" style="display: block;"><g class="djs-visual"><text class="djs-label" transform="translate(-28.484375,0)" style="font-family: Arial, sans-serif; font-size: 11px;"><tspan x="28.4921875" y="9.234375">[occur]</tspan></text></g><rect class="djs-hit djs-hit-all" x="0" y="0" width="34" height="13" style="fill: none; stroke-opacity: 0; stroke: white; stroke-width: 15px;"/><rect x="-6" y="-6" width="46" height="25" class="djs-outline" style="fill: none;"/></g></g><g class="djs-group"><g class="djs-element djs-shape" data-element-id="PlanItemOnPart_0fhfs2p_di_label" transform="translate(600 206.5)" style="display: block;"><g class="djs-visual"><text class="djs-label" transform="translate(-19.625,0)" style="font-family: Arial, sans-serif; font-size: 11px;"><tspan x="19.625" y="9.234375">[complete]</tspan></text></g><rect class="djs-hit djs-hit-all" x="0" y="0" width="51" height="13" style="fill: none; stroke-opacity: 0; stroke: white; stroke-width: 15px;"/><rect x="-6" y="-6" width="63" height="25" class="djs-outline" style="fill: none;"/></g></g></g></g></svg>